<?xml version="1.0" encoding="UTF-8"?>
<!-- Generator: visioncortex VTracer 0.6.2 -->
<svg version="1.1" xmlns="http://www.w3.org/2000/svg" width="1280" height="1280">
<path d="M0 0 C1.2333139 -0.00380567 2.4666278 -0.00761134 3.73731485 -0.01153234 C7.14051869 -0.02002338 10.54350719 -0.01967605 13.94670466 -0.01547697 C17.65693804 -0.01309952 21.36714648 -0.02229433 25.07737023 -0.02996117 C31.57367477 -0.04178041 38.06995126 -0.04617503 44.56626606 -0.04563999 C54.22709584 -0.04484523 63.88789032 -0.05541237 73.54871065 -0.06805556 C92.81499067 -0.09276915 112.08126206 -0.10157547 131.34755575 -0.10659205 C132.34481716 -0.10685322 133.34207856 -0.1071144 134.36956 -0.10738349 C135.36886789 -0.10764376 136.36817577 -0.10790404 137.39776571 -0.1081722 C148.48145497 -0.1112569 159.56514185 -0.11776251 170.64882946 -0.12438488 C204.13832927 -0.14403016 237.62782651 -0.16043597 271.11733246 -0.16326141 C272.18806723 -0.16335547 273.258802 -0.16344954 274.36198327 -0.16354645 C278.70103343 -0.16392492 283.04008359 -0.16428892 287.37913375 -0.16464943 C290.64483836 -0.16492114 293.91054298 -0.16519782 297.1762476 -0.16547489 C298.79492043 -0.16560693 298.79492043 -0.16560693 300.44629372 -0.16574163 C334.34360869 -0.1686463 368.24086661 -0.19073687 402.13816166 -0.22699833 C440.23815798 -0.26775475 478.33811542 -0.2914202 516.43813473 -0.29172093 C520.50361574 -0.29181775 524.56909674 -0.29198446 528.63457775 -0.29220104 C529.63557111 -0.29224516 530.63656447 -0.29228927 531.66789097 -0.29233472 C547.75294184 -0.293453 563.83793539 -0.31083882 579.92296782 -0.33402036 C596.09992499 -0.35690127 612.276805 -0.36106337 628.45377242 -0.34647106 C638.05428573 -0.33834055 647.65455542 -0.34393602 657.25503901 -0.36965191 C663.68084795 -0.38546962 670.10648504 -0.38286005 676.53229006 -0.36574518 C680.18511833 -0.35652306 683.83747942 -0.35482301 687.49027019 -0.37571125 C725.5810978 -0.57970228 754.51851473 9.81900561 782.65012455 35.68193722 C785.07745729 38.09464747 787.24254992 40.48464033 789.24387455 43.26006222 C789.24387455 43.92006222 789.24387455 44.58006222 789.24387455 45.26006222 C789.90387455 45.26006222 790.56387455 45.26006222 791.24387455 45.26006222 C792.53293705 46.68584347 792.53293705 46.68584347 793.86887455 48.57256222 C794.53789799 49.49488644 794.53789799 49.49488644 795.22043705 50.43584347 C796.24387455 52.26006222 796.24387455 52.26006222 796.24387455 55.26006222 C796.90387455 55.26006222 797.56387455 55.26006222 798.24387455 55.26006222 C804.65506903 66.76203147 810.50529953 78.27465234 813.24387455 91.26006222 C813.50168705 92.23072628 813.75949955 93.20139034 814.02512455 94.20146847 C820.30460746 120.22062218 815.78863995 148.31349644 804.24387455 172.26006222 C803.58387455 172.92006222 802.92387455 173.58006222 802.24387455 174.26006222 C801.60135105 176.32880256 801.60135105 176.32880256 801.24387455 178.26006222 C800.58387455 178.26006222 799.92387455 178.26006222 799.24387455 178.26006222 C799.05824955 179.12631222 799.05824955 179.12631222 798.86887455 180.01006222 C798.23738631 182.28341989 797.35529264 184.18541511 796.24387455 186.26006222 C795.58387455 186.26006222 794.92387455 186.26006222 794.24387455 186.26006222 C794.03117924 186.94584347 793.81848392 187.63162472 793.5993433 188.33818722 C791.82854851 192.15534717 789.34527375 194.89245611 786.55637455 198.01006222 C782.34538271 202.7986624 778.31484119 207.63063025 774.54856205 212.78349972 C774.11801517 213.27076534 773.6874683 213.75803097 773.24387455 214.26006222 C772.58387455 214.26006222 771.92387455 214.26006222 771.24387455 214.26006222 C770.99637455 214.81178097 770.74887455 215.36349972 770.49387455 215.93193722 C769.00152981 218.71142929 767.20714932 221.04153291 765.24387455 223.51006222 C764.54262455 224.40209347 763.84137455 225.29412472 763.11887455 226.21318722 C762.50012455 226.88865597 761.88137455 227.56412472 761.24387455 228.26006222 C760.58387455 228.26006222 759.92387455 228.26006222 759.24387455 228.26006222 C758.97583012 228.84577999 758.70778568 229.43149776 758.43161869 230.03496456 C757.23102226 232.28413946 755.9286338 233.95875054 754.2399683 235.86162472 C753.37661869 236.84389034 753.37661869 236.84389034 752.49582767 237.84599972 C751.59767338 238.85533566 751.59767338 238.85533566 750.68137455 239.88506222 C749.49073144 241.22978855 748.30184218 242.57607044 747.1149683 243.92412472 C746.5883057 244.51661007 746.0616431 245.10909542 745.51902103 245.71953487 C744.15529867 247.24903698 744.15529867 247.24903698 743.24387455 249.26006222 C742.58387455 249.26006222 741.92387455 249.26006222 741.24387455 249.26006222 C740.99637455 249.81178097 740.74887455 250.36349972 740.49387455 250.93193722 C739.00152981 253.71142929 737.20714932 256.04153291 735.24387455 258.51006222 C734.54262455 259.40209347 733.84137455 260.29412472 733.11887455 261.21318722 C732.50012455 261.88865597 731.88137455 262.56412472 731.24387455 263.26006222 C730.58387455 263.26006222 729.92387455 263.26006222 729.24387455 263.26006222 C728.83963261 264.14081417 728.83963261 264.14081417 728.42722416 265.03935909 C727.2445413 267.25881099 725.97294906 268.91252049 724.3102808 270.79131222 C723.46046635 271.76004269 723.46046635 271.76004269 722.59348392 272.74834347 C721.70886478 273.74414425 721.70886478 273.74414425 720.80637455 274.76006222 C719.63980562 276.081917 718.47440436 277.40480336 717.3102808 278.72881222 C716.76903568 279.34240597 716.22779057 279.95599972 715.67014408 280.58818722 C714.1289475 282.34955357 714.1289475 282.34955357 712.4587183 284.72881222 C711.85737064 285.48678097 711.85737064 285.48678097 711.24387455 286.26006222 C710.58387455 286.26006222 709.92387455 286.26006222 709.24387455 286.26006222 C708.97574955 286.83240597 708.70762455 287.40474972 708.43137455 287.99443722 C707.20254819 290.33890856 705.81865279 292.3841116 704.24387455 294.51006222 C703.47043705 295.56967159 703.47043705 295.56967159 702.68137455 296.65068722 C702.20699955 297.18178097 701.73262455 297.71287472 701.24387455 298.26006222 C700.58387455 298.26006222 699.92387455 298.26006222 699.24387455 298.26006222 C698.83963261 299.14081417 698.83963261 299.14081417 698.42722416 300.03935909 C697.2445413 302.25881099 695.97294906 303.91252049 694.3102808 305.79131222 C693.46046635 306.76004269 693.46046635 306.76004269 692.59348392 307.74834347 C691.70886478 308.74414425 691.70886478 308.74414425 690.80637455 309.76006222 C689.63980562 311.081917 688.47440436 312.40480336 687.3102808 313.72881222 C686.76903568 314.34240597 686.22779057 314.95599972 685.67014408 315.58818722 C684.1289475 317.34955357 684.1289475 317.34955357 682.4587183 319.72881222 C681.85737064 320.48678097 681.85737064 320.48678097 681.24387455 321.26006222 C680.58387455 321.26006222 679.92387455 321.26006222 679.24387455 321.26006222 C678.97574955 321.83240597 678.70762455 322.40474972 678.43137455 322.99443722 C677.20254819 325.33890856 675.81865279 327.3841116 674.24387455 329.51006222 C673.47043705 330.56967159 673.47043705 330.56967159 672.68137455 331.65068722 C672.20699955 332.18178097 671.73262455 332.71287472 671.24387455 333.26006222 C670.58387455 333.26006222 669.92387455 333.26006222 669.24387455 333.26006222 C668.83963261 334.14081417 668.83963261 334.14081417 668.42722416 335.03935909 C667.2445413 337.25881099 665.97294906 338.91252049 664.3102808 340.79131222 C663.46046635 341.76004269 663.46046635 341.76004269 662.59348392 342.74834347 C661.70886478 343.74414425 661.70886478 343.74414425 660.80637455 344.76006222 C659.63980562 346.081917 658.47440436 347.40480336 657.3102808 348.72881222 C656.76903568 349.34240597 656.22779057 349.95599972 655.67014408 350.58818722 C654.1289475 352.34955357 654.1289475 352.34955357 652.4587183 354.72881222 C651.85737064 355.48678097 651.85737064 355.48678097 651.24387455 356.26006222 C650.58387455 356.26006222 649.92387455 356.26006222 649.24387455 356.26006222 C648.97574955 356.83240597 648.70762455 357.40474972 648.43137455 357.99443722 C647.20254819 360.33890856 645.81865279 362.3841116 644.24387455 364.51006222 C643.47043705 365.56967159 643.47043705 365.56967159 642.68137455 366.65068722 C642.20699955 367.18178097 641.73262455 367.71287472 641.24387455 368.26006222 C640.58387455 368.26006222 639.92387455 368.26006222 639.24387455 368.26006222 C638.83963261 369.14081417 638.83963261 369.14081417 638.42722416 370.03935909 C637.2445413 372.25881099 635.97294906 373.91252049 634.3102808 375.79131222 C633.46046635 376.76004269 633.46046635 376.76004269 632.59348392 377.74834347 C631.70886478 378.74414425 631.70886478 378.74414425 630.80637455 379.76006222 C629.63980562 381.081917 628.47440436 382.40480336 627.3102808 383.72881222 C626.76903568 384.34240597 626.22779057 384.95599972 625.67014408 385.58818722 C624.1289475 387.34955357 624.1289475 387.34955357 622.4587183 389.72881222 C621.85737064 390.48678097 621.85737064 390.48678097 621.24387455 391.26006222 C620.58387455 391.26006222 619.92387455 391.26006222 619.24387455 391.26006222 C618.97574955 391.83240597 618.70762455 392.40474972 618.43137455 392.99443722 C617.20254819 395.33890856 615.81865279 397.3841116 614.24387455 399.51006222 C613.47043705 400.56967159 613.47043705 400.56967159 612.68137455 401.65068722 C612.20699955 402.18178097 611.73262455 402.71287472 611.24387455 403.26006222 C610.58387455 403.26006222 609.92387455 403.26006222 609.24387455 403.26006222 C608.83963261 404.14081417 608.83963261 404.14081417 608.42722416 405.03935909 C607.2445413 407.25881099 605.97294906 408.91252049 604.3102808 410.79131222 C603.46046635 411.76004269 603.46046635 411.76004269 602.59348392 412.74834347 C601.70886478 413.74414425 601.70886478 413.74414425 600.80637455 414.76006222 C599.63980562 416.081917 598.47440436 417.40480336 597.3102808 418.72881222 C596.76903568 419.34240597 596.22779057 419.95599972 595.67014408 420.58818722 C594.1289475 422.34955357 594.1289475 422.34955357 592.4587183 424.72881222 C591.85737064 425.48678097 591.85737064 425.48678097 591.24387455 426.26006222 C590.58387455 426.26006222 589.92387455 426.26006222 589.24387455 426.26006222 C588.97574955 426.83240597 588.70762455 427.40474972 588.43137455 427.99443722 C587.20254819 430.33890856 585.81865279 432.3841116 584.24387455 434.51006222 C583.47043705 435.56967159 583.47043705 435.56967159 582.68137455 436.65068722 C582.20699955 437.18178097 581.73262455 437.71287472 581.24387455 438.26006222 C580.58387455 438.26006222 579.92387455 438.26006222 579.24387455 438.26006222 C578.83963261 439.14081417 578.83963261 439.14081417 578.42722416 440.03935909 C577.2445413 442.25881099 575.97294906 443.91252049 574.3102808 445.79131222 C573.46046635 446.76004269 573.46046635 446.76004269 572.59348392 447.74834347 C571.70886478 448.74414425 571.70886478 448.74414425 570.80637455 449.76006222 C569.63980562 451.081917 568.47440436 452.40480336 567.3102808 453.72881222 C566.76903568 454.34240597 566.22779057 454.95599972 565.67014408 455.58818722 C564.1289475 457.34955357 564.1289475 457.34955357 562.4587183 459.72881222 C561.85737064 460.48678097 561.85737064 460.48678097 561.24387455 461.26006222 C560.58387455 461.26006222 559.92387455 461.26006222 559.24387455 461.26006222 C558.97574955 461.83240597 558.70762455 462.40474972 558.43137455 462.99443722 C557.20254819 465.33890856 555.81865279 467.3841116 554.24387455 469.51006222 C553.47043705 470.56967159 553.47043705 470.56967159 552.68137455 471.65068722 C552.20699955 472.18178097 551.73262455 472.71287472 551.24387455 473.26006222 C550.58387455 473.26006222 549.92387455 473.26006222 549.24387455 473.26006222 C548.83963261 474.14081417 548.83963261 474.14081417 548.42722416 475.03935909 C547.2445413 477.25881099 545.97294906 478.91252049 544.3102808 480.79131222 C543.46046635 481.76004269 543.46046635 481.76004269 542.59348392 482.74834347 C541.70886478 483.74414425 541.70886478 483.74414425 540.80637455 484.76006222 C539.63980562 486.081917 538.47440436 487.40480336 537.3102808 488.72881222 C536.76903568 489.34240597 536.22779057 489.95599972 535.67014408 490.58818722 C534.1289475 492.34955357 534.1289475 492.34955357 532.4587183 494.72881222 C531.85737064 495.48678097 531.85737064 495.48678097 531.24387455 496.26006222 C530.58387455 496.26006222 529.92387455 496.26006222 529.24387455 496.26006222 C528.97574955 496.83240597 528.70762455 497.40474972 528.43137455 497.99443722 C527.20254819 500.33890856 525.81865279 502.3841116 524.24387455 504.51006222 C523.47043705 505.56967159 523.47043705 505.56967159 522.68137455 506.65068722 C522.20699955 507.18178097 521.73262455 507.71287472 521.24387455 508.26006222 C520.58387455 508.26006222 519.92387455 508.26006222 519.24387455 508.26006222 C519.01313236 508.80275753 518.78239017 509.34545284 518.5446558 509.90459347 C516.86430624 512.94738861 514.71501747 515.32839155 512.43137455 517.94756222 C497.63883046 535.44622048 496.51060354 553.44814769 496.66379642 575.52837276 C496.66352936 578.15672577 496.66098947 580.78507936 496.65636539 583.41342831 C496.64961233 589.0466445 496.66035666 594.67959983 496.68285465 600.3127718 C496.7150005 608.47993673 496.71436569 616.64686246 496.7052142 624.8140739 C496.69073818 638.09940387 496.69473599 651.38465226 496.71408939 664.66997433 C496.71523784 665.46288377 496.71638628 666.25579322 496.71756953 667.07273022 C496.72702111 673.5017387 496.73737457 679.93074566 496.74777794 686.35975266 C496.75682462 691.97259939 496.76551452 697.58544652 496.77365971 703.19829464 C496.77539016 704.38391228 496.77539016 704.38391228 496.77715558 705.5934818 C496.79585918 718.82768711 496.79481128 732.06182217 496.7799983 745.2960313 C496.77183467 753.430583 496.78103327 761.56474867 496.81359398 769.69924132 C496.83481315 775.28440317 496.83797392 780.8693963 496.82764566 786.45458808 C496.82233929 789.66353752 496.82762534 792.87182707 496.84998608 796.08071804 C497.03889387 824.60186089 491.32915582 851.70512622 471.24387455 873.26006222 C468.64269278 875.67506533 465.96667153 877.98371576 463.24387455 880.26006222 C462.29512455 881.06443722 461.34637455 881.86881222 460.36887455 882.69756222 C458.24387455 884.26006222 458.24387455 884.26006222 456.24387455 884.26006222 C456.24387455 884.92006222 456.24387455 885.58006222 456.24387455 886.26006222 C455.25387455 886.26006222 454.26387455 886.26006222 453.24387455 886.26006222 C453.24387455 886.92006222 453.24387455 887.58006222 453.24387455 888.26006222 C451.59387455 888.59006222 449.94387455 888.92006222 448.24387455 889.26006222 C448.24387455 889.92006222 448.24387455 890.58006222 448.24387455 891.26006222 C446.48237064 892.07797237 446.48237064 892.07797237 444.6852808 892.91240597 C436.56429965 896.70769389 428.51072553 900.56838309 420.61887455 904.82256222 C414.37681265 908.18736127 408.0517027 911.27206174 401.61399174 914.24297237 C396.60833706 916.57121056 391.72792585 919.078371 386.86887455 921.69756222 C380.13248831 925.32772591 373.28821879 928.64375981 366.35227299 931.87383175 C360.11812142 934.79664942 354.04183741 937.96271089 347.97898197 941.22344112 C343.73010953 943.50040227 339.46520986 945.61789568 335.0212183 947.49443722 C333.35148955 948.21370499 331.73188746 949.04629551 330.11887455 949.88506222 C327.55492888 951.1112971 325.11049703 952.02529465 322.3571558 952.72099972 C320.81992057 953.11312257 319.29732256 953.56404235 317.7868433 954.04912472 C302.69097395 958.37377805 284.14801703 958.28145787 269.24387455 953.26006222 C268.06696049 952.88494503 266.89004642 952.50982784 265.6774683 952.12334347 C259.49401957 950.044708 253.71659671 947.72139627 248.11106205 944.37334347 C246.19788719 943.23264298 244.24604381 942.23445126 242.24387455 941.26006222 C242.24387455 940.60006222 242.24387455 939.94006222 242.24387455 939.26006222 C241.46012455 938.95068722 240.67637455 938.64131222 239.86887455 938.32256222 C237.24387455 937.26006222 237.24387455 937.26006222 235.24387455 936.26006222 C235.24387455 935.60006222 235.24387455 934.94006222 235.24387455 934.26006222 C234.25387455 933.93006222 233.26387455 933.60006222 232.24387455 933.26006222 C232.24387455 932.60006222 232.24387455 931.94006222 232.24387455 931.26006222 C231.64574955 930.99193722 231.04762455 930.72381222 230.43137455 930.44756222 C228.24539601 929.26088816 226.83054861 928.16407109 225.24387455 926.26006222 C225.24387455 925.60006222 225.24387455 924.94006222 225.24387455 924.26006222 C224.58387455 924.26006222 223.92387455 924.26006222 223.24387455 924.26006222 C221.73606205 922.58037472 221.73606205 922.58037472 220.11887455 920.38506222 C219.58004642 919.66576534 219.0412183 918.94646847 218.48606205 918.20537472 C217.24387455 916.26006222 217.24387455 916.26006222 217.24387455 914.26006222 C216.58387455 914.26006222 215.92387455 914.26006222 215.24387455 914.26006222 C213.7712073 911.31472773 212.29948516 908.36899651 210.8337183 905.42021847 C209.93075201 903.62537884 209.01508607 901.83646374 208.0602808 900.06865597 C205.18155382 894.70324654 203.60118071 889.18149677 202.24387455 883.26006222 C201.99744022 882.26113068 201.99744022 882.26113068 201.74602741 881.2420187 C200.11729146 874.06903855 199.96174951 867.15834886 199.98558903 859.82451534 C199.98272932 858.4865743 199.97898857 857.14863491 199.97445053 855.81069851 C199.96452888 852.15845838 199.96682706 848.50631497 199.97117746 844.8540678 C199.97366455 840.90581047 199.96457156 836.95757787 199.95679569 833.0093298 C199.9447768 826.17452722 199.93964414 819.33974792 199.9389143 812.50493526 C199.93758584 802.6121693 199.92244977 792.71945961 199.90341913 782.82671356 C199.87260812 766.76023258 199.84842798 750.69375017 199.83054447 734.62724972 C199.82947179 733.66656865 199.82839911 732.70588758 199.82729392 731.71609497 C199.81547233 720.9967025 199.80526614 710.27730946 199.79685307 699.55791378 C199.79377899 695.66956741 199.79069022 691.78122105 199.78757572 687.89287472 C199.78642771 686.45361677 199.78642771 686.45361677 199.78525651 684.9852829 C199.77216778 668.97713865 199.74752038 652.96903527 199.71383232 636.96092129 C199.69356549 627.09484841 199.68324973 617.22886298 199.68582153 607.36276913 C199.68685787 600.60212557 199.67719931 593.8415511 199.6591825 587.08093166 C199.6491555 583.18296219 199.64399007 579.28514565 199.65194988 575.38716793 C199.65915879 571.81438221 199.6524792 568.24189364 199.63506448 564.66914558 C199.62937954 562.77421521 199.63835632 560.87925805 199.6479674 558.98434353 C199.5369359 543.55978495 193.54212653 529.63955684 183.5290308 517.93193722 C182.24387455 516.26006222 182.24387455 516.26006222 182.24387455 514.26006222 C181.58387455 514.26006222 180.92387455 514.26006222 180.24387455 514.26006222 C175.24387455 508.78387174 175.24387455 508.78387174 175.24387455 506.26006222 C174.58387455 506.26006222 173.92387455 506.26006222 173.24387455 506.26006222 C171.29856205 504.14287472 171.29856205 504.14287472 169.11887455 501.38506222 C168.39442142 500.48014034 167.6699683 499.57521847 166.92356205 498.64287472 C165.24387455 496.26006222 165.24387455 496.26006222 165.24387455 494.26006222 C164.25387455 493.93006222 163.26387455 493.60006222 162.24387455 493.26006222 C162.24387455 492.60006222 162.24387455 491.94006222 162.24387455 491.26006222 C161.58387455 491.26006222 160.92387455 491.26006222 160.24387455 491.26006222 C158.29856205 489.14287472 158.29856205 489.14287472 156.11887455 486.38506222 C155.39442142 485.48014034 154.6699683 484.57521847 153.92356205 483.64287472 C152.24387455 481.26006222 152.24387455 481.26006222 152.24387455 479.26006222 C151.58387455 479.26006222 150.92387455 479.26006222 150.24387455 479.26006222 C145.24387455 473.78387174 145.24387455 473.78387174 145.24387455 471.26006222 C144.58387455 471.26006222 143.92387455 471.26006222 143.24387455 471.26006222 C141.67954668 469.56731938 140.19058883 467.8043637 138.74387455 466.01006222 C137.94981205 465.03553097 137.15574955 464.06099972 136.33762455 463.05693722 C134.65639421 460.8111146 133.36251556 458.81348192 132.24387455 456.26006222 C131.58387455 456.26006222 130.92387455 456.26006222 130.24387455 456.26006222 C128.29856205 454.14287472 128.29856205 454.14287472 126.11887455 451.38506222 C125.03219486 450.02767941 125.03219486 450.02767941 123.92356205 448.64287472 C122.24387455 446.26006222 122.24387455 446.26006222 122.24387455 444.26006222 C121.58387455 444.26006222 120.92387455 444.26006222 120.24387455 444.26006222 C115.24387455 438.78387174 115.24387455 438.78387174 115.24387455 436.26006222 C114.58387455 436.26006222 113.92387455 436.26006222 113.24387455 436.26006222 C111.67954668 434.56731938 110.19058883 432.8043637 108.74387455 431.01006222 C107.94981205 430.03553097 107.15574955 429.06099972 106.33762455 428.05693722 C104.65639421 425.8111146 103.36251556 423.81348192 102.24387455 421.26006222 C101.58387455 421.26006222 100.92387455 421.26006222 100.24387455 421.26006222 C98.29856205 419.14287472 98.29856205 419.14287472 96.11887455 416.38506222 C95.03219486 415.02767941 95.03219486 415.02767941 93.92356205 413.64287472 C92.24387455 411.26006222 92.24387455 411.26006222 92.24387455 409.26006222 C91.58387455 409.26006222 90.92387455 409.26006222 90.24387455 409.26006222 C85.24387455 403.78387174 85.24387455 403.78387174 85.24387455 401.26006222 C84.58387455 401.26006222 83.92387455 401.26006222 83.24387455 401.26006222 C81.67954668 399.56731938 80.19058883 397.8043637 78.74387455 396.01006222 C77.94981205 395.03553097 77.15574955 394.06099972 76.33762455 393.05693722 C74.65639421 390.8111146 73.36251556 388.81348192 72.24387455 386.26006222 C71.58387455 386.26006222 70.92387455 386.26006222 70.24387455 386.26006222 C68.76618237 384.62573467 67.36118136 382.92529854 65.99387455 381.19756222 C63.28438845 377.8008559 60.5658731 374.44692574 57.68137455 371.19756222 C55.24387455 368.26006222 55.24387455 368.26006222 55.24387455 366.26006222 C54.58387455 366.26006222 53.92387455 366.26006222 53.24387455 366.26006222 C51.67954668 364.56731938 50.19058883 362.8043637 48.74387455 361.01006222 C47.94981205 360.03553097 47.15574955 359.06099972 46.33762455 358.05693722 C44.65639421 355.8111146 43.36251556 353.81348192 42.24387455 351.26006222 C41.58387455 351.26006222 40.92387455 351.26006222 40.24387455 351.26006222 C38.76618237 349.62573467 37.36118136 347.92529854 35.99387455 346.19756222 C33.28438845 342.8008559 30.5658731 339.44692574 27.68137455 336.19756222 C25.24387455 333.26006222 25.24387455 333.26006222 25.24387455 331.26006222 C24.58387455 331.26006222 23.92387455 331.26006222 23.24387455 331.26006222 C21.67954668 329.56731938 20.19058883 327.8043637 18.74387455 326.01006222 C17.94981205 325.03553097 17.15574955 324.06099972 16.33762455 323.05693722 C14.65639421 320.8111146 13.36251556 318.81348192 12.24387455 316.26006222 C11.58387455 316.26006222 10.92387455 316.26006222 10.24387455 316.26006222 C8.76618237 314.62573467 7.36118136 312.92529854 5.99387455 311.19756222 C3.28438845 307.8008559 0.5658731 304.44692574 -2.31862545 301.19756222 C-4.75612545 298.26006222 -4.75612545 298.26006222 -4.75612545 296.26006222 C-5.41612545 296.26006222 -6.07612545 296.26006222 -6.75612545 296.26006222 C-8.32045332 294.56731938 -9.80941117 292.8043637 -11.25612545 291.01006222 C-12.05018795 290.03553097 -12.84425045 289.06099972 -13.66237545 288.05693722 C-15.34360579 285.8111146 -16.63748444 283.81348192 -17.75612545 281.26006222 C-18.41612545 281.26006222 -19.07612545 281.26006222 -19.75612545 281.26006222 C-21.23381763 279.62573467 -22.63881864 277.92529854 -24.00612545 276.19756222 C-26.71561155 272.8008559 -29.4341269 269.44692574 -32.31862545 266.19756222 C-34.75612545 263.26006222 -34.75612545 263.26006222 -34.75612545 261.26006222 C-35.41612545 261.26006222 -36.07612545 261.26006222 -36.75612545 261.26006222 C-38.32045332 259.56731938 -39.80941117 257.8043637 -41.25612545 256.01006222 C-42.05018795 255.03553097 -42.84425045 254.06099972 -43.66237545 253.05693722 C-45.34360579 250.8111146 -46.63748444 248.81348192 -47.75612545 246.26006222 C-48.41612545 246.26006222 -49.07612545 246.26006222 -49.75612545 246.26006222 C-51.23381763 244.62573467 -52.63881864 242.92529854 -54.00612545 241.19756222 C-56.71561155 237.8008559 -59.4341269 234.44692574 -62.31862545 231.19756222 C-64.75612545 228.26006222 -64.75612545 228.26006222 -64.75612545 226.26006222 C-65.41612545 226.26006222 -66.07612545 226.26006222 -66.75612545 226.26006222 C-68.32045332 224.56731938 -69.80941117 222.8043637 -71.25612545 221.01006222 C-72.05018795 220.03553097 -72.84425045 219.06099972 -73.66237545 218.05693722 C-75.34360579 215.8111146 -76.63748444 213.81348192 -77.75612545 211.26006222 C-78.41612545 211.26006222 -79.07612545 211.26006222 -79.75612545 211.26006222 C-82.49593158 208.30950177 -84.92640743 205.1018345 -87.41921139 201.94121456 C-88.76641652 200.24712133 -90.13730982 198.57483132 -91.51393795 196.90459347 C-99.93507224 186.58811672 -106.79590063 175.68493909 -111.75612545 163.26006222 C-112.15057858 162.31840206 -112.15057858 162.31840206 -112.55300045 161.35771847 C-114.9056106 155.4881962 -116.37175312 149.41974136 -117.75612545 143.26006222 C-117.96495358 142.40412472 -118.1737817 141.54818722 -118.38893795 140.66631222 C-124.19844631 112.84613132 -117.15135463 85.12196281 -104.75612545 60.26006222 C-104.09612545 60.26006222 -103.43612545 60.26006222 -102.75612545 60.26006222 C-102.64139889 59.68771847 -102.52667233 59.11537472 -102.4084692 58.52568722 C-101.69430189 56.04534566 -100.68304673 54.19637525 -99.31862545 52.01006222 C-98.67087154 50.95045284 -98.67087154 50.95045284 -98.0100317 49.86943722 C-97.59624264 49.33834347 -97.18245358 48.80724972 -96.75612545 48.26006222 C-96.09612545 48.26006222 -95.43612545 48.26006222 -94.75612545 48.26006222 C-94.48800045 47.45568722 -94.21987545 46.65131222 -93.94362545 45.82256222 C-93.55175045 44.97693722 -93.15987545 44.13131222 -92.75612545 43.26006222 C-91.27112545 42.76506222 -91.27112545 42.76506222 -89.75612545 42.26006222 C-89.06657276 40.93841956 -88.40367842 39.60278236 -87.75612545 38.26006222 C-86.47429064 36.79663414 -85.13682335 35.38060793 -83.75612545 34.01006222 C-82.70425045 32.95045284 -82.70425045 32.95045284 -81.63112545 31.86943722 C-79.75612545 30.26006222 -79.75612545 30.26006222 -77.75612545 30.26006222 C-77.26112545 28.77506222 -77.26112545 28.77506222 -76.75612545 27.26006222 C-74.6849406 25.54343112 -72.64206438 23.98412732 -70.44362545 22.44756222 C-69.81496578 22.00396358 -69.18630611 21.56036495 -68.53859615 21.10332394 C-62.89127179 17.20189824 -57.01451751 14.07899802 -50.75612545 11.26006222 C-49.48382076 10.67611691 -49.48382076 10.67611691 -48.18581295 10.08037472 C-42.61469106 7.56141862 -37.13943232 5.24853632 -31.19362545 3.76006222 C-30.26421139 3.52287472 -29.33479733 3.28568722 -28.3772192 3.04131222 C-18.84544395 0.98483428 -9.75284941 -0.03309233 0 0 Z M-29.6115942 96.20928097 C-37.09818601 105.32258902 -37.66070664 115.83972471 -36.75612545 127.26006222 C-35.56075174 134.00396226 -32.1751936 140.05319361 -27.75612545 145.26006222 C-27.09612545 145.26006222 -26.43612545 145.26006222 -25.75612545 145.26006222 C-25.48800045 146.02318722 -25.21987545 146.78631222 -24.94362545 147.57256222 C-23.8047804 150.14994839 -22.94195874 151.52961086 -20.75612545 153.26006222 C-20.09612545 153.26006222 -19.43612545 153.26006222 -18.75612545 153.26006222 C-18.48800045 153.83240597 -18.21987545 154.40474972 -17.94362545 154.99443722 C-16.71479909 157.33890856 -15.33090369 159.3841116 -13.75612545 161.51006222 C-12.98268795 162.56967159 -12.98268795 162.56967159 -12.19362545 163.65068722 C-11.48206295 164.44732784 -11.48206295 164.44732784 -10.75612545 165.26006222 C-10.09612545 165.26006222 -9.43612545 165.26006222 -8.75612545 165.26006222 C-8.48800045 165.83756222 -8.21987545 166.41506222 -7.94362545 167.01006222 C-6.72683356 169.31556264 -5.45278666 171.28062414 -3.75612545 173.26006222 C-3.09612545 173.26006222 -2.43612545 173.26006222 -1.75612545 173.26006222 C-1.46737545 173.85818722 -1.17862545 174.45631222 -0.88112545 175.07256222 C0.29129481 177.45334014 0.29129481 177.45334014 2.24387455 180.26006222 C2.90387455 180.26006222 3.56387455 180.26006222 4.24387455 180.26006222 C4.51199955 181.02318722 4.78012455 181.78631222 5.05637455 182.57256222 C6.1952196 185.14994839 7.05804126 186.52961086 9.24387455 188.26006222 C9.90387455 188.26006222 10.56387455 188.26006222 11.24387455 188.26006222 C11.51199955 188.83240597 11.78012455 189.40474972 12.05637455 189.99443722 C13.28520091 192.33890856 14.66909631 194.3841116 16.24387455 196.51006222 C17.01731205 197.56967159 17.01731205 197.56967159 17.80637455 198.65068722 C18.28074955 199.18178097 18.75512455 199.71287472 19.24387455 200.26006222 C19.90387455 200.26006222 20.56387455 200.26006222 21.24387455 200.26006222 C21.51199955 200.83756222 21.78012455 201.41506222 22.05637455 202.01006222 C23.27316644 204.31556264 24.54721334 206.28062414 26.24387455 208.26006222 C26.90387455 208.26006222 27.56387455 208.26006222 28.24387455 208.26006222 C28.48106205 208.80146847 28.71824955 209.34287472 28.96262455 209.90068722 C30.58735212 212.89256359 32.59406225 215.37165621 34.74387455 218.01006222 C35.53793705 218.99490597 36.33199955 219.97974972 37.15012455 220.99443722 C38.1865308 222.11592159 38.1865308 222.11592159 39.24387455 223.26006222 C39.90387455 223.26006222 40.56387455 223.26006222 41.24387455 223.26006222 C41.51199955 223.83240597 41.78012455 224.40474972 42.05637455 224.99443722 C43.28520091 227.33890856 44.66909631 229.3841116 46.24387455 231.51006222 C46.75949955 232.21646847 47.27512455 232.92287472 47.80637455 233.65068722 C48.28074955 234.18178097 48.75512455 234.71287472 49.24387455 235.26006222 C49.90387455 235.26006222 50.56387455 235.26006222 51.24387455 235.26006222 C51.51199955 235.83756222 51.78012455 236.41506222 52.05637455 237.01006222 C53.27316644 239.31556264 54.54721334 241.28062414 56.24387455 243.26006222 C56.90387455 243.26006222 57.56387455 243.26006222 58.24387455 243.26006222 C58.48106205 243.80146847 58.71824955 244.34287472 58.96262455 244.90068722 C60.58735212 247.89256359 62.59406225 250.37165621 64.74387455 253.01006222 C65.53793705 253.99490597 66.33199955 254.97974972 67.15012455 255.99443722 C68.1865308 257.11592159 68.1865308 257.11592159 69.24387455 258.26006222 C69.90387455 258.26006222 70.56387455 258.26006222 71.24387455 258.26006222 C71.51199955 258.83240597 71.78012455 259.40474972 72.05637455 259.99443722 C73.28520091 262.33890856 74.66909631 264.3841116 76.24387455 266.51006222 C76.75949955 267.21646847 77.27512455 267.92287472 77.80637455 268.65068722 C78.28074955 269.18178097 78.75512455 269.71287472 79.24387455 270.26006222 C79.90387455 270.26006222 80.56387455 270.26006222 81.24387455 270.26006222 C81.51199955 270.83756222 81.78012455 271.41506222 82.05637455 272.01006222 C83.27316644 274.31556264 84.54721334 276.28062414 86.24387455 278.26006222 C86.90387455 278.26006222 87.56387455 278.26006222 88.24387455 278.26006222 C88.48106205 278.80146847 88.71824955 279.34287472 88.96262455 279.90068722 C90.58735212 282.89256359 92.59406225 285.37165621 94.74387455 288.01006222 C95.53793705 288.99490597 96.33199955 289.97974972 97.15012455 290.99443722 C97.84106205 291.74209347 98.53199955 292.48974972 99.24387455 293.26006222 C99.90387455 293.26006222 100.56387455 293.26006222 101.24387455 293.26006222 C101.51199955 293.83240597 101.78012455 294.40474972 102.05637455 294.99443722 C103.28520091 297.33890856 104.66909631 299.3841116 106.24387455 301.51006222 C106.75949955 302.21646847 107.27512455 302.92287472 107.80637455 303.65068722 C108.28074955 304.18178097 108.75512455 304.71287472 109.24387455 305.26006222 C109.90387455 305.26006222 110.56387455 305.26006222 111.24387455 305.26006222 C111.51199955 305.83756222 111.78012455 306.41506222 112.05637455 307.01006222 C113.27316644 309.31556264 114.54721334 311.28062414 116.24387455 313.26006222 C116.90387455 313.26006222 117.56387455 313.26006222 118.24387455 313.26006222 C118.48106205 313.80146847 118.71824955 314.34287472 118.96262455 314.90068722 C120.58735212 317.89256359 122.59406225 320.37165621 124.74387455 323.01006222 C125.53793705 323.99490597 126.33199955 324.97974972 127.15012455 325.99443722 C127.84106205 326.74209347 128.53199955 327.48974972 129.24387455 328.26006222 C129.90387455 328.26006222 130.56387455 328.26006222 131.24387455 328.26006222 C131.51199955 328.83240597 131.78012455 329.40474972 132.05637455 329.99443722 C133.28520091 332.33890856 134.66909631 334.3841116 136.24387455 336.51006222 C136.75949955 337.21646847 137.27512455 337.92287472 137.80637455 338.65068722 C138.28074955 339.18178097 138.75512455 339.71287472 139.24387455 340.26006222 C139.90387455 340.26006222 140.56387455 340.26006222 141.24387455 340.26006222 C141.51199955 340.83756222 141.78012455 341.41506222 142.05637455 342.01006222 C143.27316644 344.31556264 144.54721334 346.28062414 146.24387455 348.26006222 C146.90387455 348.26006222 147.56387455 348.26006222 148.24387455 348.26006222 C148.48106205 348.80146847 148.71824955 349.34287472 148.96262455 349.90068722 C150.58735212 352.89256359 152.59406225 355.37165621 154.74387455 358.01006222 C155.53793705 358.99490597 156.33199955 359.97974972 157.15012455 360.99443722 C157.84106205 361.74209347 158.53199955 362.48974972 159.24387455 363.26006222 C159.90387455 363.26006222 160.56387455 363.26006222 161.24387455 363.26006222 C161.51199955 363.83240597 161.78012455 364.40474972 162.05637455 364.99443722 C163.28520091 367.33890856 164.66909631 369.3841116 166.24387455 371.51006222 C166.75949955 372.21646847 167.27512455 372.92287472 167.80637455 373.65068722 C168.28074955 374.18178097 168.75512455 374.71287472 169.24387455 375.26006222 C169.90387455 375.26006222 170.56387455 375.26006222 171.24387455 375.26006222 C171.51199955 375.83756222 171.78012455 376.41506222 172.05637455 377.01006222 C173.27316644 379.31556264 174.54721334 381.28062414 176.24387455 383.26006222 C176.90387455 383.26006222 177.56387455 383.26006222 178.24387455 383.26006222 C178.48106205 383.80146847 178.71824955 384.34287472 178.96262455 384.90068722 C180.58735212 387.89256359 182.59406225 390.37165621 184.74387455 393.01006222 C185.53793705 393.99490597 186.33199955 394.97974972 187.15012455 395.99443722 C187.84106205 396.74209347 188.53199955 397.48974972 189.24387455 398.26006222 C189.90387455 398.26006222 190.56387455 398.26006222 191.24387455 398.26006222 C191.51199955 398.83240597 191.78012455 399.40474972 192.05637455 399.99443722 C193.28520091 402.33890856 194.66909631 404.3841116 196.24387455 406.51006222 C196.75949955 407.21646847 197.27512455 407.92287472 197.80637455 408.65068722 C198.28074955 409.18178097 198.75512455 409.71287472 199.24387455 410.26006222 C199.90387455 410.26006222 200.56387455 410.26006222 201.24387455 410.26006222 C201.51199955 410.83756222 201.78012455 411.41506222 202.05637455 412.01006222 C203.27316644 414.31556264 204.54721334 416.28062414 206.24387455 418.26006222 C206.90387455 418.26006222 207.56387455 418.26006222 208.24387455 418.26006222 C208.48106205 418.80146847 208.71824955 419.34287472 208.96262455 419.90068722 C210.58735212 422.89256359 212.59406225 425.37165621 214.74387455 428.01006222 C215.53793705 428.99490597 216.33199955 429.97974972 217.15012455 430.99443722 C217.84106205 431.74209347 218.53199955 432.48974972 219.24387455 433.26006222 C219.90387455 433.26006222 220.56387455 433.26006222 221.24387455 433.26006222 C221.51199955 433.83240597 221.78012455 434.40474972 222.05637455 434.99443722 C223.28520091 437.33890856 224.66909631 439.3841116 226.24387455 441.51006222 C226.75949955 442.21646847 227.27512455 442.92287472 227.80637455 443.65068722 C228.28074955 444.18178097 228.75512455 444.71287472 229.24387455 445.26006222 C229.90387455 445.26006222 230.56387455 445.26006222 231.24387455 445.26006222 C231.51199955 445.83756222 231.78012455 446.41506222 232.05637455 447.01006222 C233.27316644 449.31556264 234.54721334 451.28062414 236.24387455 453.26006222 C236.90387455 453.26006222 237.56387455 453.26006222 238.24387455 453.26006222 C238.51586674 453.83885128 238.78785892 454.41764034 239.0680933 455.01396847 C241.60420552 459.85870111 245.0776351 464.09382277 248.93137455 467.94756222 C251.21641014 470.23259781 252.59323932 472.5090035 254.24387455 475.26006222 C254.90387455 475.26006222 255.56387455 475.26006222 256.24387455 475.26006222 C256.50555424 475.96775753 256.76723392 476.67545284 257.0368433 477.40459347 C258.31861601 480.43687777 259.85866488 483.1280843 261.55637455 485.94756222 C267.54048099 496.07451158 272.55730484 506.31969009 275.80637455 517.63506222 C276.01455814 518.33889034 276.22274174 519.04271847 276.43723392 519.76787472 C282.81248968 541.67157474 282.5416778 564.24150856 282.48725355 586.88085806 C282.4805473 590.6318003 282.48569992 594.38272995 282.48948002 598.13367367 C282.49465545 604.60539481 282.49325334 611.07708585 282.48770428 617.54880619 C282.47942245 627.78082462 282.49078392 638.01277974 282.50490665 648.24478817 C282.50950507 651.75761017 282.51395577 655.27043235 282.51834488 658.78325462 C282.51999209 660.09914933 282.51999209 660.09914933 282.52167258 661.44162776 C282.53379559 671.38020825 282.54138562 681.31879074 282.54734135 691.25737667 C282.54788941 692.16390562 282.54843747 693.07043457 282.54900213 694.0044341 C282.55749191 708.74907135 282.55410499 723.49369043 282.548187 738.23832781 C282.54257318 753.41519143 282.55607453 768.59196323 282.58573979 783.76879877 C282.6032702 793.11298464 282.60492702 802.4569049 282.58609464 811.80108952 C282.57450509 818.19017851 282.58090969 824.57908762 282.60156385 830.96815319 C282.61289666 834.6531772 282.61603069 838.33773771 282.59738827 842.02274227 C282.57737424 846.01554207 282.59585389 850.00763382 282.61809635 854.00043392 C282.6000401 855.74830333 282.6000401 855.74830333 282.58161908 857.53148323 C282.58473876 864.19009459 282.58473876 864.19009459 285.58767319 869.92472649 C288.95755722 872.88753296 290.74513331 873.82470016 295.24387455 874.26006222 C303.07044486 872.67611346 310.19956314 868.32031976 317.14182377 864.52251339 C321.42681212 862.17845529 325.73287868 860.1497326 330.24387455 858.26006222 C332.18990852 857.31917922 334.12779548 856.36122399 336.05637455 855.38506222 C337.09149174 854.86299191 338.12660892 854.34092159 339.1930933 853.80303097 C340.19985111 853.29385128 341.20660892 852.78467159 342.24387455 852.26006222 C343.95170306 851.40488664 345.66000333 850.55065226 347.36887455 849.69756222 C348.18485111 849.28892941 349.00082767 848.88029659 349.8415308 848.45928097 C351.38891746 847.68684568 352.93825751 846.91830504 354.4899683 846.15459347 C359.98620333 843.43891579 365.3995385 840.58565674 370.80637455 837.69756222 C375.97533575 834.93770514 381.13315401 832.30789601 386.53293705 830.02178097 C388.89376168 828.97072891 391.03519634 827.59689376 393.24387455 826.26006222 C394.29574955 825.82693722 395.34762455 825.39381222 396.43137455 824.94756222 C399.5759554 823.62752938 402.52969195 822.07210064 405.49387455 820.38506222 C406.3240308 819.91326534 407.15418705 819.44146847 408.00949955 818.95537472 C410.78278355 816.85116972 411.78268648 815.45193883 413.24387455 812.26006222 C413.68544112 808.89939512 413.65111065 805.56301349 413.62914371 802.17746639 C413.63437941 801.15290555 413.63961511 800.1283447 413.64500946 799.07273656 C413.65899528 795.63400123 413.65166273 792.19563992 413.64450932 788.75688839 C413.65025105 786.29265668 413.6573335 783.82842779 413.665658 781.36420345 C413.68079051 776.05117618 413.68690819 770.7382539 413.68513012 765.42521381 C413.68274159 757.71735704 413.69876941 750.00962133 413.71958267 742.30179624 C413.75312765 729.76144519 413.77477142 717.22110499 413.78757572 704.68071651 C413.78872996 703.55497672 413.78872996 703.55497672 413.78990751 702.40649471 C413.79300838 699.36747078 413.79609122 696.32844683 413.79914755 693.28942285 C413.80764434 684.96509873 413.81855448 676.64077848 413.83054447 668.3164587 C413.83161249 667.57264512 413.83268051 666.82883154 413.83378089 666.06247815 C413.85197189 653.59137046 413.87802749 641.12028803 413.90867561 628.64920503 C413.92708648 620.97847444 413.93813641 613.307801 413.93919753 605.63704798 C413.94044753 599.72772715 413.95163355 593.81845027 413.96613789 587.90914631 C413.97036739 585.50845347 413.97131219 583.10775187 413.96846294 580.707057 C413.95597276 568.80393312 414.18380132 556.98682633 415.14363956 545.1179266 C415.22211268 544.13742468 415.3005858 543.15692276 415.38143688 542.14670867 C416.07227147 534.45523716 417.72924966 527.57281327 420.24387455 520.26006222 C420.86955764 518.05192232 421.49455621 515.84358836 422.11887455 513.63506222 C423.83664459 508.06758621 426.17004887 503.04747303 428.87668705 497.89678097 C430.35336729 495.15071783 430.35336729 495.15071783 431.68137455 491.69756222 C433.64688334 487.37344289 436.18815824 483.56315606 438.8180933 479.61553097 C440.41648455 477.43379721 440.41648455 477.43379721 440.24387455 475.26006222 C440.90387455 475.26006222 441.56387455 475.26006222 442.24387455 475.26006222 C443.83213677 473.5450845 443.83213677 473.5450845 445.36887455 471.38506222 C446.17711674 470.30611691 446.17711674 470.30611691 447.00168705 469.20537472 C448.42327087 467.36380216 448.42327087 467.36380216 448.24387455 465.26006222 C448.90387455 465.26006222 449.56387455 465.26006222 450.24387455 465.26006222 C450.90387455 463.61006222 451.56387455 461.96006222 452.24387455 460.26006222 C452.90387455 460.26006222 453.56387455 460.26006222 454.24387455 460.26006222 C457.26905364 457.20447799 457.26905364 457.20447799 458.24387455 453.26006222 C458.90387455 453.26006222 459.56387455 453.26006222 460.24387455 453.26006222 C463.88020994 449.78007714 463.88020994 449.78007714 465.24387455 445.26006222 C465.90387455 445.26006222 466.56387455 445.26006222 467.24387455 445.26006222 C469.28843514 443.08741567 469.28843514 443.08741567 471.36887455 440.38506222 C472.09332767 439.48014034 472.8177808 438.57521847 473.56418705 437.64287472 C475.43592689 435.47350411 475.43592689 435.47350411 475.24387455 433.26006222 C475.90387455 433.26006222 476.56387455 433.26006222 477.24387455 433.26006222 C480.88020994 429.78007714 480.88020994 429.78007714 482.24387455 425.26006222 C482.90387455 425.26006222 483.56387455 425.26006222 484.24387455 425.26006222 C487.26905364 422.20447799 487.26905364 422.20447799 488.24387455 418.26006222 C488.90387455 418.26006222 489.56387455 418.26006222 490.24387455 418.26006222 C493.88020994 414.78007714 493.88020994 414.78007714 495.24387455 410.26006222 C495.90387455 410.26006222 496.56387455 410.26006222 497.24387455 410.26006222 C499.28843514 408.08741567 499.28843514 408.08741567 501.36887455 405.38506222 C502.09332767 404.48014034 502.8177808 403.57521847 503.56418705 402.64287472 C505.43592689 400.47350411 505.43592689 400.47350411 505.24387455 398.26006222 C505.90387455 398.26006222 506.56387455 398.26006222 507.24387455 398.26006222 C510.88020994 394.78007714 510.88020994 394.78007714 512.24387455 390.26006222 C512.90387455 390.26006222 513.56387455 390.26006222 514.24387455 390.26006222 C517.26905364 387.20447799 517.26905364 387.20447799 518.24387455 383.26006222 C518.90387455 383.26006222 519.56387455 383.26006222 520.24387455 383.26006222 C523.88020994 379.78007714 523.88020994 379.78007714 525.24387455 375.26006222 C525.90387455 375.26006222 526.56387455 375.26006222 527.24387455 375.26006222 C529.28843514 373.08741567 529.28843514 373.08741567 531.36887455 370.38506222 C532.09332767 369.48014034 532.8177808 368.57521847 533.56418705 367.64287472 C535.43592689 365.47350411 535.43592689 365.47350411 535.24387455 363.26006222 C535.90387455 363.26006222 536.56387455 363.26006222 537.24387455 363.26006222 C540.88020994 359.78007714 540.88020994 359.78007714 542.24387455 355.26006222 C542.90387455 355.26006222 543.56387455 355.26006222 544.24387455 355.26006222 C547.26905364 352.20447799 547.26905364 352.20447799 548.24387455 348.26006222 C548.90387455 348.26006222 549.56387455 348.26006222 550.24387455 348.26006222 C553.88020994 344.78007714 553.88020994 344.78007714 555.24387455 340.26006222 C555.90387455 340.26006222 556.56387455 340.26006222 557.24387455 340.26006222 C559.28843514 338.08741567 559.28843514 338.08741567 561.36887455 335.38506222 C562.09332767 334.48014034 562.8177808 333.57521847 563.56418705 332.64287472 C565.43592689 330.47350411 565.43592689 330.47350411 565.24387455 328.26006222 C565.90387455 328.26006222 566.56387455 328.26006222 567.24387455 328.26006222 C570.88020994 324.78007714 570.88020994 324.78007714 572.24387455 320.26006222 C572.90387455 320.26006222 573.56387455 320.26006222 574.24387455 320.26006222 C577.26905364 317.20447799 577.26905364 317.20447799 578.24387455 313.26006222 C578.90387455 313.26006222 579.56387455 313.26006222 580.24387455 313.26006222 C583.88020994 309.78007714 583.88020994 309.78007714 585.24387455 305.26006222 C585.90387455 305.26006222 586.56387455 305.26006222 587.24387455 305.26006222 C589.28843514 303.08741567 589.28843514 303.08741567 591.36887455 300.38506222 C592.09332767 299.48014034 592.8177808 298.57521847 593.56418705 297.64287472 C595.43592689 295.47350411 595.43592689 295.47350411 595.24387455 293.26006222 C595.90387455 293.26006222 596.56387455 293.26006222 597.24387455 293.26006222 C600.88020994 289.78007714 600.88020994 289.78007714 602.24387455 285.26006222 C602.90387455 285.26006222 603.56387455 285.26006222 604.24387455 285.26006222 C607.26905364 282.20447799 607.26905364 282.20447799 608.24387455 278.26006222 C608.90387455 278.26006222 609.56387455 278.26006222 610.24387455 278.26006222 C613.88020994 274.78007714 613.88020994 274.78007714 615.24387455 270.26006222 C615.90387455 270.26006222 616.56387455 270.26006222 617.24387455 270.26006222 C619.28843514 268.08741567 619.28843514 268.08741567 621.36887455 265.38506222 C622.09332767 264.48014034 622.8177808 263.57521847 623.56418705 262.64287472 C625.43592689 260.47350411 625.43592689 260.47350411 625.24387455 258.26006222 C625.90387455 258.26006222 626.56387455 258.26006222 627.24387455 258.26006222 C630.88020994 254.78007714 630.88020994 254.78007714 632.24387455 250.26006222 C632.90387455 250.26006222 633.56387455 250.26006222 634.24387455 250.26006222 C637.26905364 247.20447799 637.26905364 247.20447799 638.24387455 243.26006222 C638.90387455 243.26006222 639.56387455 243.26006222 640.24387455 243.26006222 C643.88020994 239.78007714 643.88020994 239.78007714 645.24387455 235.26006222 C645.90387455 235.26006222 646.56387455 235.26006222 647.24387455 235.26006222 C649.28843514 233.08741567 649.28843514 233.08741567 651.36887455 230.38506222 C652.09332767 229.48014034 652.8177808 228.57521847 653.56418705 227.64287472 C655.43592689 225.47350411 655.43592689 225.47350411 655.24387455 223.26006222 C655.90387455 223.26006222 656.56387455 223.26006222 657.24387455 223.26006222 C660.88020994 219.78007714 660.88020994 219.78007714 662.24387455 215.26006222 C662.90387455 215.26006222 663.56387455 215.26006222 664.24387455 215.26006222 C667.26905364 212.20447799 667.26905364 212.20447799 668.24387455 208.26006222 C668.90387455 208.26006222 669.56387455 208.26006222 670.24387455 208.26006222 C673.88020994 204.78007714 673.88020994 204.78007714 675.24387455 200.26006222 C675.90387455 200.26006222 676.56387455 200.26006222 677.24387455 200.26006222 C679.28843514 198.08741567 679.28843514 198.08741567 681.36887455 195.38506222 C682.09332767 194.48014034 682.8177808 193.57521847 683.56418705 192.64287472 C685.43592689 190.47350411 685.43592689 190.47350411 685.24387455 188.26006222 C685.90387455 188.26006222 686.56387455 188.26006222 687.24387455 188.26006222 C690.88020994 184.78007714 690.88020994 184.78007714 692.24387455 180.26006222 C693.72887455 179.76506222 693.72887455 179.76506222 695.24387455 179.26006222 C697.65382821 176.62465204 697.65382821 176.62465204 698.24387455 173.26006222 C698.90387455 173.26006222 699.56387455 173.26006222 700.24387455 173.26006222 C703.88020994 169.78007714 703.88020994 169.78007714 705.24387455 165.26006222 C705.90387455 165.26006222 706.56387455 165.26006222 707.24387455 165.26006222 C709.28843514 163.08741567 709.28843514 163.08741567 711.36887455 160.38506222 C712.09332767 159.48014034 712.8177808 158.57521847 713.56418705 157.64287472 C715.43592689 155.47350411 715.43592689 155.47350411 715.24387455 153.26006222 C716.72887455 152.76506222 716.72887455 152.76506222 718.24387455 152.26006222 C718.24387455 151.60006222 718.24387455 150.94006222 718.24387455 150.26006222 C718.90387455 150.26006222 719.56387455 150.26006222 720.24387455 150.26006222 C720.90387455 148.61006222 721.56387455 146.96006222 722.24387455 145.26006222 C722.90387455 145.26006222 723.56387455 145.26006222 724.24387455 145.26006222 C725.76816552 143.38003243 725.76816552 143.38003243 727.24387455 141.01006222 C727.75949955 140.22115597 728.27512455 139.43224972 728.80637455 138.61943722 C734.20778594 129.75407722 734.27878148 119.62859957 732.85324955 109.47881222 C730.6178501 100.42257854 724.14466891 92.70220084 716.46649325 87.54472033 C708.79247062 83.10918876 700.57266127 82.82795609 691.92176151 82.8825388 C690.1057647 82.87599831 690.1057647 82.87599831 688.25308108 82.8693257 C684.90404303 82.86028818 681.55551315 82.86460811 678.20651075 82.87465956 C674.55874653 82.88229002 670.91102139 82.87248187 667.26326275 82.86492956 C660.87385396 82.85410534 654.48452125 82.8544165 648.09510899 82.86207104 C638.59380833 82.87342267 629.09257181 82.86761509 619.59127158 82.85844612 C602.62157175 82.84264952 585.65190581 82.84401782 568.68220276 82.85268285 C553.83176436 82.86022855 538.98133839 82.86220007 524.13089848 82.85861492 C523.14595821 82.85838577 522.16101795 82.85815661 521.14623101 82.85792051 C517.14807007 82.8569865 513.14990914 82.8560313 509.15174822 82.85504122 C471.64344918 82.84586355 434.13517173 82.85418568 396.62687603 82.87033191 C363.3006296 82.8845688 329.97441755 82.88329492 296.64817142 82.86894894 C259.20861566 82.85288618 221.76907896 82.84651442 184.32952023 82.85578573 C180.33863036 82.85674788 176.34774049 82.8576864 172.35685062 82.85861492 C171.37418672 82.85885215 170.39152281 82.85908939 169.3790812 82.85933381 C154.5377221 82.86274669 139.69637677 82.85875452 124.85501957 82.85117626 C107.98028669 82.8426027 91.105593 82.84473399 74.230865 82.86101849 C64.78585779 82.86983239 55.34093544 82.87039512 45.89593042 82.85907997 C39.58773793 82.85235596 33.27961352 82.85653383 26.97143113 82.86959428 C23.37681407 82.87673345 19.78236569 82.87916492 16.18775392 82.86837633 C12.31374199 82.85686775 8.43999589 82.86858619 4.56598759 82.8825388 C3.45282224 82.8755153 2.3396569 82.8684918 1.19275928 82.86125547 C-11.91642058 82.95588004 -20.55072757 86.69060213 -29.6115942 96.20928097 Z " fill="#000000" transform="translate(291.7561254501343,171.7399377822876)"/>
</svg>
