<svg width="17" height="17" viewBox="0 0 17 17" fill="none" xmlns="http://www.w3.org/2000/svg">
<g clip-path="url(#clip0_9_221)">
<path d="M16.344 8.68429C16.344 8.14047 16.2999 7.59371 16.2059 7.05872H8.66V10.1394H12.9812C12.8018 11.1329 12.2257 12.0119 11.382 12.5704V14.5693H13.96C15.4739 13.1759 16.344 11.1182 16.344 8.68429Z" fill="#4285F4"/>
<path d="M8.65999 16.5005C10.8176 16.5005 12.6372 15.7921 13.9629 14.5693L11.385 12.5704C10.6677 13.0583 9.74174 13.3346 8.66293 13.3346C6.57584 13.3346 4.80623 11.9266 4.17128 10.0335H1.51099V12.0942C2.86906 14.7956 5.63518 16.5005 8.65999 16.5005Z" fill="#34A853"/>
<path d="M4.16836 10.0335C3.83325 9.03994 3.83325 7.96406 4.16836 6.97049V4.90987H1.511C0.376337 7.17038 0.376337 9.83362 1.511 12.0941L4.16836 10.0335Z" fill="#FBBC04"/>
<path d="M8.65999 3.66644C9.80053 3.6488 10.9029 4.07798 11.7289 4.86578L14.0129 2.58174C12.5667 1.22367 10.6471 0.477023 8.65999 0.500539C5.63518 0.500539 2.86906 2.20548 1.51099 4.90987L4.16834 6.9705C4.80035 5.07449 6.5729 3.66644 8.65999 3.66644Z" fill="#EA4335"/>
</g>
<defs>
<clipPath id="clip0_9_221">
<rect width="16" height="16" fill="white" transform="translate(0.5 0.5)"/>
</clipPath>
</defs>
</svg>
