<svg width="36" height="40" viewBox="0 0 36 40" fill="none" xmlns="http://www.w3.org/2000/svg">
<path d="M22.3084 19.2523L3.64848 27.9135C1.42494 28.9474 0 31.1892 0 33.6631C0 38.2733 4.71849 41.3379 8.86804 39.4179L27.528 30.783C29.7567 29.7545 31.1817 27.5074 31.1817 25.0282V25.0018C31.1817 20.3917 26.458 17.327 22.3084 19.2523Z" fill="#141A7F"/>
<path d="M27.1267 0.58473L8.46677 9.24597C6.24324 10.2798 4.8183 12.5216 4.8183 14.9955C4.8183 19.6057 9.53679 22.6704 13.6863 20.7503L32.3463 12.1155C34.575 11.0869 36 8.83981 36 6.36065V6.33428C36 1.72409 31.2763 -1.34058 27.1267 0.58473Z" fill="#E670EF"/>
</svg>
