<svg width="299" height="332" viewBox="0 0 299 332" fill="none" xmlns="http://www.w3.org/2000/svg">
<path d="M185.16 159.794L30.2824 231.683C11.827 240.264 0 258.871 0 279.404C0 317.669 39.1635 343.105 73.6048 327.169L228.482 255.5C246.981 246.962 258.808 228.312 258.808 207.735V207.516C258.808 169.251 219.601 143.814 185.16 159.794Z" fill="#141A7F"/>
<path d="M225.152 4.85326L70.2747 76.7416C51.8194 85.3227 39.9924 103.93 39.9924 124.463C39.9924 162.727 79.1558 188.164 113.597 172.228L268.475 100.558C286.973 92.0212 298.8 73.3705 298.8 52.7934V52.5745C298.8 14.31 259.594 -11.1268 225.152 4.85326Z" fill="#E670EF"/>
</svg>
