<svg width="24" height="24" viewBox="0 0 24 24" fill="none" xmlns="http://www.w3.org/2000/svg">
<path d="M18.9998 8.70977L13.6668 4.56177C13.1988 4.19768 12.6227 4 12.0298 4C11.4368 4 10.8608 4.19768 10.3928 4.56177L5.05976 8.70977C4.73921 8.95905 4.47986 9.2783 4.30152 9.64312C4.12318 10.0079 4.03057 10.4087 4.03076 10.8148V18.0148C4.03076 18.5452 4.24148 19.0539 4.61655 19.429C4.99162 19.8041 5.50033 20.0148 6.03076 20.0148H18.0308C18.5612 20.0148 19.0699 19.8041 19.445 19.429C19.82 19.0539 20.0308 18.5452 20.0308 18.0148V10.8148C20.0308 9.99177 19.6498 9.21477 18.9998 8.70977Z" stroke="#667085" stroke-width="2" stroke-linecap="round" stroke-linejoin="round"/>
<path d="M16 15C13.79 16.333 10.208 16.333 8 15" stroke="#667085" stroke-width="2" stroke-linecap="round" stroke-linejoin="round"/>
</svg>
