<svg width="24" height="24" viewBox="0 0 24 24" fill="none" xmlns="http://www.w3.org/2000/svg">
<path d="M19.4998 13.5756C19.9914 13.095 20.378 12.5177 20.6353 11.8802C20.8926 11.2427 21.015 10.5588 20.9948 9.87159C20.9654 8.83515 20.6144 7.83349 19.9906 7.00529C19.3668 6.17708 18.5009 5.56331 17.5128 5.24893C16.5248 4.93456 15.4634 4.93513 14.4757 5.25057C13.488 5.56601 12.6228 6.18072 11.9998 7.00959C11.5881 6.4556 11.0661 5.99285 10.4667 5.6505C9.86731 5.30815 9.20354 5.09361 8.51718 5.0204C7.83082 4.94718 7.13673 5.01687 6.47862 5.22508C5.82052 5.43328 5.21265 5.7755 4.6933 6.23017C4.17395 6.68485 3.75436 7.24213 3.46097 7.86693C3.16758 8.49173 3.00673 9.17051 2.98855 9.86053C2.97037 10.5505 3.09527 11.2369 3.35536 11.8762C3.61546 12.5156 4.00512 13.0942 4.49981 13.5756L11.9998 21.0036L19.4998 13.5756Z" stroke="#667085" stroke-width="2" stroke-linejoin="round"/>
</svg>
